<svg width="137" height="137" viewBox="0 0 137 137" fill="none" xmlns="http://www.w3.org/2000/svg">
    <g clip-path="url(#clip0_687_142)">
        <path fill-rule="evenodd" clip-rule="evenodd"
              d="M92.719 86.6525C94.3929 88.3221 94.3929 91.0623 92.719 92.732C91.0493 94.4017 88.3351 94.4017 86.6611 92.732L68.5256 74.5796L50.2618 92.8601C48.575 94.5297 45.8437 94.5297 44.1569 92.8601C42.4744 91.1476 42.4744 88.4079 44.1569 86.7382L62.4207 68.4571L44.2852 50.3475C42.6113 48.6779 42.6113 45.9377 44.2852 44.268C45.9506 42.5983 48.6649 42.5983 50.3389 44.268L68.4744 62.4204L86.8751 44.0114C88.5619 42.3417 91.289 42.3417 92.9758 44.0114C94.6584 45.7239 94.6584 48.4208 92.9758 50.1333L74.5793 68.5429L92.719 86.6525ZM68.5 0C30.6666 0 0 30.6537 0 68.5C0 106.346 30.6666 137 68.5 137C106.333 137 137 106.346 137 68.5C137 30.6537 106.333 0 68.5 0Z"
              fill="#C3654A"/>
    </g>
    <defs>
        <clipPath id="clip0_687_142">
            <rect width="137" height="137" fill="white"/>
        </clipPath>
    </defs>
</svg>
