<svg width="150" height="150" viewBox="0 0 150 150" fill="none" xmlns="http://www.w3.org/2000/svg">
    <g clip-path="url(#clip0_687_127)">
        <path d="M75 12.5C40.5 12.5 12.5 40.5 12.5 75C12.5 109.5 40.5 137.5 75 137.5C109.5 137.5 137.5 109.5 137.5 75C137.5 40.5 109.5 12.5 75 12.5ZM58.0625 101.812L35.625 79.375C33.1875 76.9375 33.1875 73 35.625 70.5625C38.0625 68.125 42 68.125 44.4375 70.5625L62.5 88.5625L105.5 45.5625C107.937 43.125 111.875 43.125 114.312 45.5625C116.75 48 116.75 51.9375 114.312 54.375L66.875 101.812C64.5 104.25 60.5 104.25 58.0625 101.812Z"
              fill="#3C443F"/>
    </g>
    <defs>
        <clipPath id="clip0_687_127">
            <rect width="150" height="150" fill="white"/>
        </clipPath>
    </defs>
</svg>
